<?xml version="1.0" encoding="UTF-8"?><svg id="Layer_1" xmlns="http://www.w3.org/2000/svg" viewBox="0 0 1000 470.28029"><path d="M223.74196,99.59556c-79.08818,0-143.20181,61.73897-143.20181,137.89767s64.11363,137.89785,143.20181,137.89785c37.13972,0,70.97572-13.61643,96.42221-35.94585l36.4508,35.0137,9.32366-9.7069-36.08399-34.66124c23.04623-24.47495,37.08896-56.9566,37.08896-92.59755,0-76.15871-64.11355-137.89767-143.20164-137.89767Zm0,184.34267c-25.81144,0-46.73589-20.79405-46.73589-46.445s20.92444-46.44483,46.73589-46.44483,46.73571,20.79405,46.73571,46.44483c0,10.12179-3.26813,19.47986-8.79891,27.10989l-33.27498-31.963-9.32366,9.70621,33.21406,31.90454c-7.89792,6.06785-17.797,9.68735-28.55223,9.68735ZM381.81944,120.8102h100.67516v248.79493h-100.67516V120.8102Zm-.30598-13.44867l-3.13994-11.62586,102.55124-27.69461,3.13994,11.62586-102.55124,27.69461Zm259.0587-7.76597c-79.08818,0-143.20177,61.73897-143.20177,137.89767s64.11359,137.89785,143.20177,137.89785c37.13976,0,70.97581-13.61643,96.42225-35.94585l36.45076,35.0137,9.32366-9.7069-36.08395-34.66124c23.04618-24.47495,37.08891-56.9566,37.08891-92.59755,0-76.15871-64.11346-137.89767-143.20164-137.89767Zm0,184.34267c-25.81144,0-46.73589-20.79405-46.73589-46.445s20.92444-46.44483,46.73589-46.44483,46.73571,20.79405,46.73571,46.44483c0,10.12179-3.26809,19.47986-8.79886,27.10989l-33.27502-31.963-9.32366,9.70621,33.21406,31.90454c-7.89792,6.06785-17.79696,9.68735-28.55223,9.68735Zm158.07752-163.12803h100.67516v248.79493h-100.67516V120.8102Zm-.30602-13.44867l-3.13994-11.62586,102.55124-27.69461,3.13994,11.62586-102.55124,27.69461Z"/></svg>